<?xml version="1.0" encoding="UTF-8"?>
<svg width="231px" height="48px" viewBox="0 0 231 48" version="1.1" xmlns="http://www.w3.org/2000/svg" xmlns:xlink="http://www.w3.org/1999/xlink">
    <!-- Generator: Sketch 59 (86127) - https://sketch.com -->
    <title>Group</title>
    <desc>Created with Sketch.</desc>
    <g id="Page-1" stroke="none" stroke-width="1" fill="none" fill-rule="evenodd">
        <g id="Aimension" transform="translate(-200.000000, -35.000000)" fill-rule="nonzero">
            <g id="Group" transform="translate(200.000000, 35.000000)">
                <g id="Group-14_1_" transform="translate(52.000000, 10.000000)" fill="#FFFFFF">
                    <path d="M7,21.6 C8,22.6 9.2,23.1 10.8,23.1 C12.3,23.1 13.6,22.6 14.6,21.6 C15.6,20.6 16.1,19.3 16.1,17.7 C16.1,16.1 15.6,14.8 14.6,13.8 C13.6,12.8 12.4,12.3 10.8,12.3 C9.3,12.3 8,12.8 7,13.8 C6,14.8 5.5,16.1 5.5,17.7 C5.5,19.2 6,20.5 7,21.6 M16.1,10.3 L16.1,8 L21,8 L21,27.3 L16.1,27.3 L16.1,25 C14.6,26.9 12.6,27.8 9.9,27.8 C7.4,27.8 5.2,26.8 3.4,24.9 C1.6,22.9 0.7,20.5 0.7,17.6 C0.7,14.8 1.6,12.4 3.4,10.4 C5.2,8.4 7.4,7.4 9.9,7.4 C12.5,7.4 14.6,8.4 16.1,10.3" id="Fill-3_1_"></path>
                    <path d="M24.6,27.2 L29.6,27.2 L29.6,8.3 L24.6,8.3 L24.6,27.2 Z M27.1,6 C26.3,6 25.6,5.7 24.9,5.1 C24.3,4.5 24,3.8 24,3 C24,2.2 24.3,1.5 24.9,0.9 C25.6,0.3 26.3,0 27.1,0 C28,0 28.7,0.3 29.3,0.9 C29.9,1.5 30.2,2.2 30.2,3 C30.2,3.8 29.9,4.5 29.3,5.1 C28.7,5.7 28,6 27.1,6 L27.1,6 Z" id="Fill-5_1_"></path>
                    <path d="M55.3,7.4 C57.4,7.4 59.2,8.1 60.4,9.6 C61.7,11 62.3,13 62.3,15.4 L62.3,27.2 L57.5,27.2 L57.5,15.7 C57.5,14.5 57.2,13.7 56.7,13 C56.2,12.4 55.4,12 54.4,12 C53.3,12 52.4,12.4 51.8,13.1 C51.2,13.8 50.9,14.9 50.9,16.3 L50.9,27.2 L46.1,27.2 L46.1,15.7 C46.1,14.5 45.8,13.7 45.3,13 C44.8,12.4 44,12 43,12 C41.9,12 41.1,12.4 40.4,13.1 C39.8,13.9 39.4,14.9 39.4,16.3 L39.4,27.2 L34.6,27.2 L34.6,8 L39.4,8 L39.4,10 C40.5,8.3 42.3,7.4 44.6,7.4 C46.9,7.4 48.6,8.3 49.7,10.2 C50.9,8.4 52.8,7.4 55.3,7.4" id="Fill-7_1_"></path>
                    <path d="M70.5,15.8 L80.2,15.8 C79.9,14.5 79.4,13.6 78.5,12.9 C77.6,12.2 76.6,11.9 75.5,11.9 C74.2,11.9 73.1,12.2 72.2,12.9 C71.4,13.6 70.8,14.6 70.5,15.8 M85,19.7 L70.6,19.7 C71.2,22.1 73,23.3 76,23.3 C77.9,23.3 79.3,22.7 80.3,21.4 L84.3,23.7 C82.4,26.5 79.6,27.8 76,27.8 C72.8,27.8 70.3,26.8 68.4,24.9 C66.5,23 65.5,20.5 65.5,17.6 C65.5,14.7 66.4,12.3 68.3,10.3 C70.2,8.3 72.6,7.4 75.6,7.4 C78.4,7.4 80.7,8.4 82.5,10.3 C84.3,12.3 85.3,14.7 85.3,17.6 C85.2,18.2 85.1,18.8 85,19.7" id="Fill-8_1_"></path>
                    <path d="M99.5,7.4 C101.6,7.4 103.3,8.1 104.7,9.5 C106.1,10.9 106.8,12.9 106.8,15.3 L106.8,27.2 L101.9,27.2 L101.9,16 C101.9,14.7 101.6,13.8 100.9,13.1 C100.2,12.4 99.3,12.1 98.1,12.1 C96.8,12.1 95.8,12.5 95,13.3 C94.2,14.1 93.9,15.3 93.9,16.9 L93.9,27.2 L89,27.2 L89,8 L93.9,8 L93.9,10.2 C95,8.3 96.9,7.4 99.5,7.4" id="Fill-9_1_"></path>
                    <path d="M115.6,13.5 C115.6,14.3 116.7,15 119,15.6 C119.8,15.8 120.5,16 121.2,16.2 C121.8,16.4 122.5,16.8 123.2,17.2 C123.9,17.7 124.4,18.2 124.8,19 C125.2,19.7 125.4,20.6 125.4,21.6 C125.4,23.6 124.7,25.1 123.2,26.2 C121.7,27.3 120,27.8 117.8,27.8 C113.9,27.8 111.3,26.3 109.9,23.2 L114.1,20.8 C114.7,22.5 115.9,23.3 117.8,23.3 C119.5,23.3 120.4,22.7 120.4,21.6 C120.4,20.8 119.3,20.1 117,19.5 C116.1,19.3 115.4,19 114.8,18.8 C114.2,18.6 113.5,18.2 112.8,17.8 C112.1,17.3 111.6,16.8 111.2,16.1 C110.8,15.4 110.7,14.6 110.7,13.6 C110.7,11.7 111.4,10.2 112.7,9.1 C114.1,8 115.8,7.4 117.8,7.4 C119.3,7.4 120.7,7.8 122,8.5 C123.3,9.2 124.2,10.2 125,11.5 L120.9,13.8 C120.3,12.5 119.3,11.8 117.9,11.8 C117.3,11.8 116.8,11.9 116.3,12.2 C115.8,12.6 115.6,13 115.6,13.5" id="Fill-10_1_"></path>
                    <path d="M128.4,27.2 L133.4,27.2 L133.4,8.3 L128.4,8.3 L128.4,27.2 Z M130.8,6 C130,6 129.3,5.7 128.6,5.1 C128,4.5 127.7,3.8 127.7,3 C127.7,2.2 128,1.5 128.6,0.9 C129.2,0.3 129.9,0 130.8,0 C131.7,0 132.4,0.3 133,0.9 C133.6,1.5 133.9,2.2 133.9,3 C133.9,3.8 133.6,4.5 133,5.1 C132.4,5.7 131.7,6 130.8,6 L130.8,6 Z" id="Fill-11_1_"></path>
                    <path d="M142.8,21.4 C143.8,22.4 145,22.9 146.5,22.9 C148,22.9 149.2,22.4 150.2,21.4 C151.2,20.4 151.7,19.1 151.7,17.6 C151.7,16.1 151.2,14.8 150.2,13.8 C149.2,12.8 148,12.3 146.5,12.3 C145,12.3 143.8,12.8 142.8,13.8 C141.8,14.8 141.3,16.1 141.3,17.6 C141.3,19.1 141.9,20.4 142.8,21.4 M153.8,24.9 C151.8,26.9 149.4,27.8 146.6,27.8 C143.8,27.8 141.3,26.8 139.4,24.9 C137.4,22.9 136.5,20.5 136.5,17.6 C136.5,14.7 137.5,12.3 139.4,10.4 C141.4,8.4 143.8,7.4 146.6,7.4 C149.5,7.4 151.9,8.4 153.8,10.4 C155.8,12.4 156.8,14.8 156.8,17.6 C156.8,20.5 155.8,22.9 153.8,24.9" id="Fill-12_1_"></path>
                    <path d="M171.1,7.4 C173.2,7.4 174.9,8.1 176.3,9.5 C177.7,10.9 178.4,12.9 178.4,15.3 L178.4,27.2 L173.5,27.2 L173.5,16 C173.5,14.7 173.2,13.8 172.5,13.1 C171.8,12.4 170.9,12.1 169.7,12.1 C168.4,12.1 167.4,12.5 166.6,13.3 C165.8,14.1 165.5,15.3 165.5,16.9 L165.5,27.2 L160.6,27.2 L160.6,8 L165.5,8 L165.5,10.2 C166.6,8.3 168.5,7.4 171.1,7.4" id="Fill-13_1_"></path>
                </g>
                <path d="M16,16.5 C16,13.3 18.6,10.6 21.9,10.6 C25.1,10.6 27.8,13.2 27.8,16.5 C27.8,19.7 25.2,22.4 21.9,22.4 C18.7,22.4 16,19.8 16,16.5 Z M0,20 L0,39.3 C0,43.9 3.8,47.7 8.5,47.7 C13.2,47.7 17,43.9 17,39.3 L17,30.9 C17,27.8 19.6,25.1 22.8,25.2 C25.9,25.3 28.3,27.7 28.3,30.8 L28.3,42.2 C28.3,45.3 30.8,47.8 33.9,47.8 C37,47.8 39.5,45.3 39.5,42.2 L39.5,19.8 C39.5,8.9 30.6,0.1 19.7,0.2 C8.8,0.2 0,9.1 0,20 Z" id="Fill-1-Copy-3_2_" fill="#FF4E00"></path>
            </g>
        </g>
    </g>
</svg>