<svg id="Layer_1" data-name="Layer 1" xmlns="http://www.w3.org/2000/svg" xmlns:xlink="http://www.w3.org/1999/xlink" viewBox="0 0 1032 1080"><defs><style>.cls-1{fill:url(#linear-gradient);}</style><linearGradient id="linear-gradient" x1="914.8" y1="68.6" x2="197.68" y2="1142.32" gradientUnits="userSpaceOnUse"><stop offset="0" stop-color="#ff4e00"/><stop offset="1" stop-color="#ff4e00" stop-opacity="0"/></linearGradient></defs><title>Overlay2</title><path class="cls-1" d="M540,1080c.63-7.43,1-15,1-22.53V790.12c0-98.66,82.74-184.6,184.57-181.41,98.65,3.18,175,79.56,175,178.23V1080H1032V0H181.44A630.2,630.2,0,0,0,0,443.2v614.27c0,7.58.34,15.1,1,22.53ZM698,144c102,0,188,82.85,188,188,0,102-82.85,188-188,188-102,0-188-82.85-188-188C510,230,592.85,144,698,144Z"/></svg>