<?xml version="1.0" encoding="UTF-8"?>
<svg width="1032px" height="1080px" viewBox="0 0 1032 1080" version="1.1" xmlns="http://www.w3.org/2000/svg" xmlns:xlink="http://www.w3.org/1999/xlink">
    <!-- Generator: Sketch 59 (86127) - https://sketch.com -->
    <title>Fill-1-Copy-3_2_</title>
    <desc>Created with Sketch.</desc>
    <defs>
        <linearGradient x1="67.8699237%" y1="9.00821307%" x2="15.5796491%" y2="74.9748007%" id="linearGradient-1">
            <stop stop-color="#FF4E00" offset="0%"></stop>
            <stop stop-color="#FF4E00" stop-opacity="0" offset="100%"></stop>
        </linearGradient>
    </defs>
    <g id="Page-1" stroke="none" stroke-width="1" fill="none" fill-rule="evenodd">
        <g id="Aimension" transform="translate(-888.000000, 0.000000)" fill="url(#linearGradient-1)" fill-rule="nonzero">
            <path d="M1398,332 C1398,230.033898 1480.84746,144 1586,144 C1687.9661,144 1774,226.847458 1774,332 C1774,433.966102 1691.15254,520 1586,520 C1484.0339,520 1398,437.152542 1398,332 Z M888,443.204762 L888,1057.46908 C888,1203.87405 1008.92658,1324.81728 1158.49367,1324.81728 C1308.06076,1324.81728 1428.98734,1203.87405 1428.98734,1057.46908 L1428.98734,790.120881 C1428.98734,691.456664 1511.72658,605.523313 1613.55949,608.70603 C1712.21013,611.888746 1788.58481,688.273947 1788.58481,786.938164 L1788.58481,1149.76787 C1788.58481,1248.43208 1868.14177,1328 1966.79241,1328 C2065.44304,1328 2145,1248.43208 2145,1149.76787 L2145,436.839329 C2145,89.9232105 1861.77722,-190.155858 1514.90886,-186.973141 C1168.04051,-186.973141 888,96.2886439 888,443.204762 Z" id="Fill-1-Copy-3_2_"></path>
        </g>
    </g>
</svg>