<?xml version="1.0" encoding="UTF-8"?>
<svg width="35px" height="29px" viewBox="0 0 35 29" version="1.1" xmlns="http://www.w3.org/2000/svg" xmlns:xlink="http://www.w3.org/1999/xlink">
    <!-- Generator: Sketch 59 (86127) - https://sketch.com -->
    <title>Fill 4</title>
    <desc>Created with Sketch.</desc>
    <g id="Page-1" stroke="none" stroke-width="1" fill="none" fill-rule="evenodd">
        <g id="Aimension" transform="translate(-65.000000, -933.000000)" fill="#282828">
            <g id="Group-6" transform="translate(50.000000, 915.000000)">
                <path d="M15,43.4923976 C18.1774249,45.5285778 21.9520193,46.7175 26.0062133,46.7175 C39.3389713,46.7175 46.8709009,35.4598392 46.4169831,25.3617658 C47.8201588,24.350578 49.0369348,23.0857304 50,21.6448741 C48.7124612,22.2160399 47.3282706,22.602569 45.8767691,22.7751267 C47.3593372,21.8881804 48.4967207,20.4818356 49.0334829,18.8028497 C47.6458405,19.6259496 46.1080428,20.2247247 44.4735934,20.5474075 C43.1636175,19.1514161 41.2978944,18.28 39.2319641,18.28 C34.5961339,18.28 31.1908871,22.6042946 32.2367967,27.0942445 C26.2685537,26.7957198 20.9785986,23.9364396 17.4370038,19.5931637 C15.5557473,22.8217172 16.4618571,27.0424772 19.6599931,29.1787409 C18.4829134,29.1425038 17.3731446,28.8180954 16.4049016,28.2797156 C16.328961,31.606627 18.7124612,34.7178413 22.1660338,35.4115231 C21.1546427,35.6858897 20.0465999,35.7480105 18.9230238,35.534039 C19.8360373,38.3864169 22.4887815,40.4605598 25.631688,40.5192294 C22.613048,42.8849947 18.8108388,43.9410475 15,43.4923976" id="Fill-4"></path>
            </g>
        </g>
    </g>
</svg>