<?xml version="1.0" encoding="UTF-8"?>
<svg width="37px" height="37px" viewBox="0 0 37 37" version="1.1" xmlns="http://www.w3.org/2000/svg" xmlns:xlink="http://www.w3.org/1999/xlink">
    <!-- Generator: Sketch 59 (86127) - https://sketch.com -->
    <title>Group 3</title>
    <desc>Created with Sketch.</desc>
    <g id="Page-1" stroke="none" stroke-width="1" fill="none" fill-rule="evenodd">
        <g id="Aimension" transform="translate(-64.000000, -770.000000)" fill="#282828">
            <g id="Group-10" transform="translate(50.000000, 756.000000)">
                <g id="Group-3" transform="translate(14.500000, 14.500000)">
                    <path d="M17.9991375,0 C13.1103551,0 12.4979635,0.0207005606 10.5779865,0.108677943 C8.66145958,0.196655326 7.35387417,0.501988596 6.20844315,0.945325603 C5.0250611,1.40591308 4.0210839,2.02002971 3.02055681,3.02055681 C2.02002971,4.02280895 1.40418803,5.02678614 0.945325603,6.21016819 C0.498538502,7.35559921 0.194930279,8.66318463 0.106952897,10.5797115 C0.0207005606,12.4996885 0,13.1120801 0,18.0008625 C0,22.8896449 0.0207005606,23.5020365 0.106952897,25.4220135 C0.194930279,27.3385404 0.498538502,28.6461258 0.945325603,29.7915569 C1.40418803,30.9749389 2.02002971,31.9789161 3.02055681,32.9794432 C4.0210839,33.9799703 5.0250611,34.595812 6.20844315,35.0546744 C7.35387417,35.4997365 8.66145958,35.8050697 10.5779865,35.8930471 C12.4979635,35.9792994 13.1103551,36 17.9991375,36 C22.8879199,36 23.5003115,35.9792994 25.4202885,35.8930471 C27.3368154,35.8050697 28.6444008,35.4997365 29.7898318,35.0546744 C30.9732139,34.595812 31.977191,33.9799703 32.9777181,32.9794432 C33.9782452,31.9789161 34.5940869,30.9749389 35.0546744,29.7915569 C35.4997365,28.6461258 35.8033447,27.3385404 35.8913221,25.4220135 C35.9775744,23.5020365 36,22.8896449 36,18.0008625 C36,13.1120801 35.9775744,12.4996885 35.8913221,10.5797115 C35.8033447,8.66318463 35.4997365,7.35559921 35.0546744,6.21016819 C34.5940869,5.02678614 33.9782452,4.02280895 32.9777181,3.02055681 C31.977191,2.02002971 30.9732139,1.40591308 29.7898318,0.945325603 C28.6444008,0.501988596 27.3368154,0.196655326 25.4202885,0.108677943 C23.5003115,0.0207005606 22.8879199,0 17.9991375,0 M17.9991375,3.24308783 C22.8051176,3.24308783 23.3743831,3.26206335 25.2719344,3.34831568 C27.028032,3.42766783 27.9802578,3.72265082 28.615075,3.9693325 C29.4551727,4.29536633 30.055489,4.68522689 30.6851311,5.31486894 C31.3147731,5.944511 31.7046337,6.54482726 32.0306675,7.38492501 C32.2773492,8.01801715 32.5706071,8.97196799 32.6516843,10.7263405 C32.7379367,12.6256169 32.7569122,13.1931573 32.7569122,18.0008625 C32.7569122,22.8068427 32.7379367,23.3761081 32.6516843,25.2736595 C32.5706071,27.028032 32.2773492,27.9819828 32.0306675,28.6168 C31.7046337,29.4568978 31.3147731,30.055489 30.6851311,30.6868561 C30.055489,31.3147731 29.4551727,31.7046337 28.615075,32.0323925 C27.9802578,32.2790742 27.028032,32.5723322 25.2719344,32.6516843 C23.3743831,32.7396617 22.8068427,32.7569122 17.9991375,32.7569122 C13.1931573,32.7569122 12.6238919,32.7396617 10.7263405,32.6516843 C8.97196799,32.5723322 8.01801715,32.2790742 7.38319996,32.0323925 C6.54310221,31.7046337 5.944511,31.3147731 5.3131439,30.6868561 C4.68350184,30.055489 4.29364129,29.4568978 3.96760746,28.6168 C3.72092578,27.9819828 3.42766783,27.028032 3.34659064,25.2736595 C3.26206335,23.3761081 3.24308783,22.8068427 3.24308783,18.0008625 C3.24308783,13.1931573 3.26206335,12.6256169 3.34659064,10.7263405 C3.42766783,8.97196799 3.72092578,8.01801715 3.96760746,7.38492501 C4.29364129,6.54482726 4.68350184,5.944511 5.3131439,5.31486894 C5.944511,4.68522689 6.54310221,4.29536633 7.38319996,3.9693325 C8.01801715,3.72265082 8.97196799,3.42766783 10.7263405,3.34831568 C12.6238919,3.26206335 13.1931573,3.24308783 17.9991375,3.24308783" id="Fill-4"></path>
                    <path d="M18,23.8421053 C14.7732363,23.8421053 12.1578947,21.225084 12.1578947,18 C12.1578947,14.7732363 14.7732363,12.156215 18,12.156215 C21.2267637,12.156215 23.8421053,14.7732363 23.8421053,18 C23.8421053,21.225084 21.2267637,23.8421053 18,23.8421053 M18,9 C13.0296753,9 9,13.0296753 9,18 C9,22.9703247 13.0296753,27 18,27 C22.9703247,27 27,22.9703247 27,18 C27,13.0296753 22.9703247,9 18,9" id="Fill-6"></path>
                    <path d="M30,9 C30,10.1038339 29.1038339,11 28,11 C26.8945687,11 26,10.1038339 26,9 C26,7.89616613 26.8945687,7 28,7 C29.1038339,7 30,7.89616613 30,9" id="Fill-8"></path>
                </g>
            </g>
        </g>
    </g>
</svg>